<svg height="512" width="512" xmlns="http://www.w3.org/2000/svg"><path d="M32 496h432a8 8 0 008-8V376h8a8 8 0 008-8v-32a8 8 0 00-8-8h-8V224h8a8 8 0 008-8v-32a8 8 0 00-8-8h-56v-56a8 8 0 00-8-8h-88V72a8 8 0 00-8-8h-88V24a8 8 0 00-8-8H32a8 8 0 00-8 8v464a8 8 0 008 8zm392-16h-24v-72h24zm-40 0h-24v-72h24zm72 0h-16v-80a8 8 0 00-8-8h-80a8 8 0 00-8 8v80h-16V376h128zm16-120H328v-16h144zm-48-32h-24v-72h24zm-40 0h-24v-72h24zm72 0h-16v-80a8 8 0 00-8-8h-80a8 8 0 00-8 8v80h-16V224h128zm16-120H328v-16h144zm-64-80v48h-80v-48zm-96-48v400h-80v-16h56a8 8 0 008-8v-96a8 8 0 00-8-8h-56v-16h56a8 8 0 008-8v-96a8 8 0 00-8-8h-56v-16h56a8 8 0 008-8v-96a8 8 0 00-8-8h-56V80zm-32 344v24h-16v-24zm0-16h-48v-40h48zm-32 16v24h-16v-24zm32-128v24h-16v-24zm0-16h-48v-40h48zm-32 16v24h-16v-24zm32-128v24h-16v-24zm0-16h-48v-40h48zm-32 16v24h-16v-24zM40 32h176v448H40z"/><path d="M192 48H64a8 8 0 00-8 8v112a8 8 0 008 8h128a8 8 0 008-8V56a8 8 0 00-8-8zm-8 72h-48V64h48zm-64 16v24h-16v-24zm16 0h16v24h-16zm-16-72v56H72V64zm-48 72h16v24H72zm96 24v-24h16v24zm24 32H64a8 8 0 00-8 8v112a8 8 0 008 8h128a8 8 0 008-8V200a8 8 0 00-8-8zm-8 72h-48v-56h48zm-64 16v24h-16v-24zm16 0h16v24h-16zm-16-72v56H72v-56zm-48 72h16v24H72zm96 24v-24h16v24zm24 32H64a8 8 0 00-8 8v112a8 8 0 008 8h128a8 8 0 008-8V344a8 8 0 00-8-8zm-8 72h-48v-56h48zm-64 16v24h-16v-24zm16 0h16v24h-16zm-16-72v56H72v-56zm-48 72h16v24H72zm96 24v-24h16v24zm176-304h16v16h-16zm32 0h16v16h-16z"/></svg>