<svg id="outline" height="512" viewBox="0 0 512 512" width="512" xmlns="http://www.w3.org/2000/svg"><path d="m32 496h432a7.99977 7.99977 0 0 0 8-8v-112h8a7.99977 7.99977 0 0 0 8-8v-32a7.99977 7.99977 0 0 0 -8-8h-8v-104h8a7.99977 7.99977 0 0 0 8-8v-32a7.99977 7.99977 0 0 0 -8-8h-56v-56a7.99977 7.99977 0 0 0 -8-8h-88v-40a7.99977 7.99977 0 0 0 -8-8h-88v-40a7.99977 7.99977 0 0 0 -8-8h-192a7.99977 7.99977 0 0 0 -8 8v464a7.99977 7.99977 0 0 0 8 8zm392-16h-24v-72h24zm-40 0h-24v-72h24zm72 0h-16v-80a7.99977 7.99977 0 0 0 -8-8h-80a7.99977 7.99977 0 0 0 -8 8v80h-16v-104h128zm16-120h-144v-16h144zm-48-32h-24v-72h24zm-40 0h-24v-72h24zm72 0h-16v-80a7.99977 7.99977 0 0 0 -8-8h-80a7.99977 7.99977 0 0 0 -8 8v80h-16v-104h128zm16-120h-144v-16h144zm-64-80v48h-80v-48zm-96-48v400h-80v-16h56a7.99977 7.99977 0 0 0 8-8v-96a7.99977 7.99977 0 0 0 -8-8h-56v-16h56a7.99977 7.99977 0 0 0 8-8v-96a7.99977 7.99977 0 0 0 -8-8h-56v-16h56a7.99977 7.99977 0 0 0 8-8v-96a7.99977 7.99977 0 0 0 -8-8h-56v-16zm-32 344v24h-16v-24zm0-16h-48v-40h48zm-32 16v24h-16v-24zm32-128v24h-16v-24zm0-16h-48v-40h48zm-32 16v24h-16v-24zm32-128v24h-16v-24zm0-16h-48v-40h48zm-32 16v24h-16v-24zm-208-136h176v448h-176z"/><path d="m192 48h-128a7.99977 7.99977 0 0 0 -8 8v112a7.99977 7.99977 0 0 0 8 8h128a7.99977 7.99977 0 0 0 8-8v-112a7.99977 7.99977 0 0 0 -8-8zm-8 72h-48v-56h48zm-64 16v24h-16v-24zm16 0h16v24h-16zm-16-72v56h-48v-56zm-48 72h16v24h-16zm96 24v-24h16v24z"/><path d="m192 192h-128a7.99977 7.99977 0 0 0 -8 8v112a7.99977 7.99977 0 0 0 8 8h128a7.99977 7.99977 0 0 0 8-8v-112a7.99977 7.99977 0 0 0 -8-8zm-8 72h-48v-56h48zm-64 16v24h-16v-24zm16 0h16v24h-16zm-16-72v56h-48v-56zm-48 72h16v24h-16zm96 24v-24h16v24z"/><path d="m192 336h-128a7.99977 7.99977 0 0 0 -8 8v112a7.99977 7.99977 0 0 0 8 8h128a7.99977 7.99977 0 0 0 8-8v-112a7.99977 7.99977 0 0 0 -8-8zm-8 72h-48v-56h48zm-64 16v24h-16v-24zm16 0h16v24h-16zm-16-72v56h-48v-56zm-48 72h16v24h-16zm96 24v-24h16v24z"/><path d="m344 144h16v16h-16z"/><path d="m376 144h16v16h-16z"/></svg>