<svg xmlns="http://www.w3.org/2000/svg" width="512" height="512"><path d="M96 248h48a8 8 0 008-8v-40a32 32 0 00-64 0v40a8 8 0 008 8zm8-16v-16h32v16zm16-48a16.019 16.019 0 0116 16h-32a16.019 16.019 0 0116-16zm168 64h48a8 8 0 008-8v-40a32 32 0 00-64 0v40a8 8 0 008 8zm8-16v-16h32v16zm16-48a16.019 16.019 0 0116 16h-32a16.019 16.019 0 0116-16z"/><path d="M494.4 107.2l-24-32A8 8 0 00464 72H352V24a8 8 0 00-8-8H168a8 8 0 00-8 8v48H48a8 8 0 00-6.4 3.2l-24 32A8 8 0 0016 112v32a8 8 0 008 8h24v160a8 8 0 00-8 8v32a8 8 0 008 8v88h-8a8 8 0 00-8 8v32a8 8 0 008 8h432a8 8 0 008-8v-32a8 8 0 00-8-8h-8v-88a8 8 0 008-8v-32a8 8 0 00-8-8V152h24a8 8 0 008-8v-32a8 8 0 00-1.6-4.8zM460 88l12 16H352V88zM176 32h160v72H176zM52 88h108v16H40zm12 64h184v112h-16v-64a32 32 0 00-64 0v64H80v16h8v32H64zm392 192H56v-16h400zm-176 40v64h-48v-64a24 24 0 0148 0zM120 280v32h-16v-32zm112 32v-32h16v32zm-64 0v-32h16v32zm32-32h16v32h-16zm16-16h-32v-64a16 16 0 0132 0zm-64 48h-16v-32h16zm208 0v-32h16v32zm32 0v-32h16v32zm16-48h-32v-64a16 16 0 0132 0zm-64 48h-16v-32h16zm-32 0h-16v-32h16zm-32 0h-16v-32h16zM64 360h160.022A39.788 39.788 0 00216 384v64h-16v-64a8 8 0 00-8-8H88a8 8 0 00-8 8v64H64zm32 88v-56h34.4l-31.107 56zm52.707-56h21.7l-31.111 56H117.6zM184 400.472V448h-26.4zM48 464h160v16H48zm176 0h64v16h-64zm240 16H304v-16h160zm-48-32h-26.4l26.4-47.528zm-44.707 0H349.6l31.111-56h21.7zm-40 0H328v-56h34.4zM448 448h-16v-64a8 8 0 00-8-8H320a8 8 0 00-8 8v64h-16v-64a39.788 39.788 0 00-8.022-24H448zm0-136h-24v-32h8v-16h-8v-64a32 32 0 00-64 0v64h-96V152h184zM32 136v-16h448v16z"/></svg>