<svg height="511pt" viewBox="-5 1 511 511.999" width="511pt" xmlns="http://www.w3.org/2000/svg"><path d="M141.746 243.05h288.512v40.259H81.62V243.05h39.758v-15.028h-54.78v97.051l40.761 29.317H223.25v32.949l8.52 13.887V512h48.343V401.227l8.516-13.887v-32.95h48.832v-15.027H112.203l-30.582-21.988v-19.04h348.64v19.04l-30.581 21.988h-41.852v15.028h46.695l40.762-29.317v-97.05H141.746zM265.09 496.974h-18.297v-93.227h18.297zm8.515-113.871l-3.445 5.617h-28.437l-3.446-5.617V354.39h35.328zM500.879 79.297h-15.527V63.77h-15.028v15.527h-15.527v15.027h15.527v15.524h15.028V94.324h15.527zM31.05 148.172H16.028v15.523H.5v15.028h15.527v15.527h15.024v-15.527h15.527v-15.028H31.051zM85.395 0h15.027v189.96H85.395zm81.515 50.086h15.028V189.96H166.91zM248.426 0h15.027v189.96h-15.027zm81.519 50.086h15.024V189.96h-15.024zM411.46 0h15.024v189.96h-15.023zm0 0"/><path d="M276.191 327.363h-15.027v-15.027h15.027zm-25.043 0h-15.027v-15.027h15.027zm0 0"/></svg>