<svg height="511pt" viewBox="-5 1 511 511.999" width="511pt" xmlns="http://www.w3.org/2000/svg"><path d="m141.746094 243.050781h288.511718v40.257813h-348.636718v-40.257813h39.757812v-15.027343h-54.78125v97.050781l40.761719 29.316406h115.890625v32.949219l8.519531 13.886718v110.773438h48.34375v-110.773438l8.515625-13.886718v-32.949219h48.832032v-15.027344c-73.996094 0 148.53125 0-225.257813 0l-30.582031-21.988281v-19.039062h348.640625v19.039062l-30.582031 21.988281h-41.851563v15.027344h46.695313l40.761718-29.316406c0-24.515625 0-79.1875 0-97.050781h-303.539062zm123.34375 253.921875h-18.296875v-93.226562h18.296875zm8.515625-113.871094-3.445313 5.617188h-28.4375l-3.445312-5.617188v-28.710937h35.328125zm0 0"/><path d="m500.878906 79.296875h-15.527344v-15.527344h-15.027343v15.527344h-15.527344v15.027344h15.527344v15.523437h15.027343v-15.523437h15.527344zm0 0"/><path d="m31.050781 148.171875h-15.023437v15.523437h-15.527344v15.027344h15.527344v15.527344h15.023437v-15.527344h15.527344v-15.027344h-15.527344zm0 0"/><path d="m85.394531 0h15.027344v189.960938h-15.027344zm0 0"/><path d="m166.910156 50.085938h15.027344v139.875h-15.027344zm0 0"/><path d="m248.425781 0h15.027344v189.960938h-15.027344zm0 0"/><path d="m329.945312 50.085938h15.023438v139.875h-15.023438zm0 0"/><path d="m411.460938 0h15.023437v189.960938h-15.023437zm0 0"/><path d="m276.191406 327.363281h-15.027344v-15.027343h15.027344zm-25.042968 0h-15.027344v-15.027343h15.027344zm0 0"/></svg>