<svg xmlns="http://www.w3.org/2000/svg" width="512" height="512"><path d="M24 480v8a8 8 0 0016 0v-8h8v8a8 8 0 0016 0v-8h8v8a8 8 0 0016 0v-8h8v8a8 8 0 0015.973.529A71.354 71.354 0 00143.818 496H352a8 8 0 007.956-7.163l8.565-81.372a19.889 19.889 0 007.479-3.5V480a16.019 16.019 0 0016 16h72a16.019 16.019 0 0016-16v-64a63.413 63.413 0 00-43.417-60.238L432 354.234V332l12.826-9.62a62.1 62.1 0 0023.6 20.775 8 8 0 107.156-14.31 46 46 0 01-17.931-16.081l1.019-.764H480a8 8 0 008-8v-24a8 8 0 00-8-8H376a8 8 0 00-8 8v8h-16v-20a44 44 0 00-88 0v28h-16v-64a8 8 0 00-8-8v-48a76 76 0 00-152 0v128.127a102.67 102.67 0 00-16 55.158v38.5l-21.155 35.257-28.785 7.2A8 8 0 0016 448v24a8 8 0 008 8zm440-192h8v8h-8zm0 128v64h-72v-32h24a8 8 0 000-16h-24v-16h24a8 8 0 000-16h-24v-.4a20.033 20.033 0 0016-19.6v-12h14.7l8.821 2.94A47.438 47.438 0 01464 416zm-56-64v-16h8v16zm40-64v12l-26.667 20H408v-10a22.025 22.025 0 00-22-22zm-168-20a28 28 0 0156 0v20h-56zm0 36h106a6.006 6.006 0 016 6v70a4 4 0 01-8 0v-39a8 8 0 00-16 0v47a4 4 0 01-8 0v-48a8 8 0 00-16 0v48a4 4 0 01-8 0v-49a8 8 0 00-16 0v49a4 4 0 01-8 0v-50c0-.239-.015-.474-.036-.708.023-.428.036-.859.036-1.292v-16a8 8 0 00-16 0v16a8 8 0 01-16 0zm-32 8h16v16h-16zm0 32h17.376A23.985 23.985 0 00296 358.624V388a19.962 19.962 0 0032 15.962 19.85 19.85 0 0024 0c.247.186.487.381.743.556L344.8 480h-73.66A55.949 55.949 0 00248 386.341zm24 96a40 40 0 11-40-40 40.045 40.045 0 0140 40zm-40-184h-32v-16h32zm-24-32v-16h16v16zm16-32h-16v-16h16zm-14.846-55.445A59.925 59.925 0 01221.817 160h-16.842a43.982 43.982 0 00-6.139-10.833zM168 116.148A59.6 59.6 0 01197.117 126l-10.193 12.46A43.691 43.691 0 00168 132.19zM192 176v48a8 8 0 00-8 8v24h-8.715A102.7 102.7 0 00136 263.77V176a28 28 0 0156 0zm-40-58.792v16.469a43.939 43.939 0 00-15.976 8.386L125.9 129.686a59.8 59.8 0 0126.1-12.478zm-37.074 24.334l10.663 13.032a43.827 43.827 0 00-2.564 5.426h-16.842a59.769 59.769 0 018.743-18.458zM104 176h16v16h-16zm0 32h16v16h-16zm0 32h16v16h-16zm0 32h16v.079a104.065 104.065 0 00-16 12.533zm71.285 0H232v80H88.307a87.4 87.4 0 0186.978-80zM88 368h144v16a55.963 55.963 0 00-39.138 96h-49.044A55.881 55.881 0 0188 424.182zm-56 86.246l25.94-6.485a7.993 7.993 0 004.92-3.645l9.291-15.485A71.361 71.361 0 0084.084 464H32z"/><path d="M208 440a24 24 0 1024-24 24.027 24.027 0 00-24 24zm32 0a8 8 0 11-8-8 8.009 8.009 0 018 8zm163.562-300.657a8 8 0 000 13.314l2.213 1.475a47.519 47.519 0 0118.635 24.4 8 8 0 0015.18 0 47.519 47.519 0 0118.635-24.4l2.213-1.475a8 8 0 000-13.314l-2.213-1.475a47.519 47.519 0 01-18.635-24.4 8 8 0 00-15.18 0 47.519 47.519 0 01-18.635 24.4zM432 133.9a63.763 63.763 0 0010.618 12.1A63.763 63.763 0 00432 158.1a63.763 63.763 0 00-10.618-12.1A63.763 63.763 0 00432 133.9zm-100.438 62.757l2.213 1.475a47.519 47.519 0 0118.635 24.4 8 8 0 0015.18 0 47.519 47.519 0 0118.635-24.4l2.213-1.475a8 8 0 000-13.314l-2.213-1.475a47.519 47.519 0 01-18.635-24.4 8 8 0 00-15.18 0 47.519 47.519 0 01-18.635 24.4l-2.213 1.475a8 8 0 000 13.314zM360 177.9a63.763 63.763 0 0010.618 12.1A63.763 63.763 0 00360 202.1a63.763 63.763 0 00-10.618-12.1A63.763 63.763 0 00360 177.9zm44.438-96.556l-2.951-1.968a66.04 66.04 0 01-25.9-33.906 8 8 0 00-15.18 0 66.043 66.043 0 01-25.9 33.907l-2.95 1.967a8 8 0 000 13.312l2.951 1.968a66.04 66.04 0 0125.9 33.906 8 8 0 0015.18 0 66.043 66.043 0 0125.9-33.907l2.95-1.967a8 8 0 000-13.312zM368 109.073A82.324 82.324 0 00349.727 88 82.324 82.324 0 00368 66.927 82.324 82.324 0 00386.273 88 82.324 82.324 0 00368 109.073z"/></svg>