<?xml version="1.0"?>
<svg xmlns="http://www.w3.org/2000/svg" viewBox="0 0 512 512" width="512" height="512"><g id="outline"><path d="M24,480v8a8,8,0,0,0,16,0v-8h8v8a8,8,0,0,0,16,0v-8h8v8a8,8,0,0,0,16,0v-8h8v8a8,8,0,0,0,15.973.529A71.354,71.354,0,0,0,143.818,496H352a8,8,0,0,0,7.956-7.163l8.565-81.372a19.889,19.889,0,0,0,7.479-3.5V480a16.019,16.019,0,0,0,16,16h72a16.019,16.019,0,0,0,16-16V416a63.413,63.413,0,0,0-43.417-60.238L432,354.234V332l12.826-9.62a62.1,62.1,0,0,0,23.6,20.775,8,8,0,1,0,7.156-14.31,46,46,0,0,1-17.931-16.081l1.019-.764H480a8,8,0,0,0,8-8V280a8,8,0,0,0-8-8H376a8,8,0,0,0-8,8v8H352V268a44,44,0,0,0-88,0v28H248V232a8,8,0,0,0-8-8V176a76,76,0,0,0-152,0V304.127a102.67,102.67,0,0,0-16,55.158v38.5L50.845,433.042l-28.785,7.2A8,8,0,0,0,16,448v24A8,8,0,0,0,24,480ZM464,288h8v8h-8Zm0,128v64H392V448h24a8,8,0,0,0,0-16H392V416h24a8,8,0,0,0,0-16H392v-.4A20.033,20.033,0,0,0,408,380V368h14.7l8.821,2.94A47.438,47.438,0,0,1,464,416Zm-56-64V336h8v16Zm40-64v12l-26.667,20H408V310a22.025,22.025,0,0,0-22-22ZM280,268a28,28,0,0,1,56,0v20H280Zm0,36H386a6.006,6.006,0,0,1,6,6v70a4,4,0,0,1-8,0V341a8,8,0,0,0-16,0v47a4,4,0,0,1-8,0V340a8,8,0,0,0-16,0v48a4,4,0,0,1-8,0V339a8,8,0,0,0-16,0v49a4,4,0,0,1-8,0V338c0-.239-.015-.474-.036-.708.023-.428.036-.859.036-1.292V320a8,8,0,0,0-16,0v16a8,8,0,0,1-16,0Zm-32,8h16v16H248Zm0,32h17.376A23.985,23.985,0,0,0,296,358.624V388a19.962,19.962,0,0,0,32,15.962,19.85,19.85,0,0,0,24,0c.247.186.487.381.743.556L344.8,480h-73.66A55.949,55.949,0,0,0,248,386.341Zm24,96a40,40,0,1,1-40-40A40.045,40.045,0,0,1,272,440ZM232,256H200V240h32Zm-24-32V208h16v16Zm16-32H208V176h16Zm-14.846-55.445A59.925,59.925,0,0,1,221.817,160H204.975a43.982,43.982,0,0,0-6.139-10.833ZM168,116.148A59.6,59.6,0,0,1,197.117,126L186.924,138.46A43.691,43.691,0,0,0,168,132.19ZM192,176v48a8,8,0,0,0-8,8v24h-8.715A102.7,102.7,0,0,0,136,263.77V176a28,28,0,0,1,56,0Zm-40-58.792v16.469a43.939,43.939,0,0,0-15.976,8.386L125.9,129.686A59.8,59.8,0,0,1,152,117.208Zm-37.074,24.334,10.663,13.032A43.827,43.827,0,0,0,123.025,160H106.183A59.769,59.769,0,0,1,114.926,141.542ZM104,176h16v16H104Zm0,32h16v16H104Zm0,32h16v16H104Zm0,32h16v.079a104.065,104.065,0,0,0-16,12.533Zm71.285,0H232v80H88.307A87.4,87.4,0,0,1,175.285,272ZM88,368H232v16a55.963,55.963,0,0,0-39.138,96H143.818A55.881,55.881,0,0,1,88,424.182ZM32,454.246l25.94-6.485a7.993,7.993,0,0,0,4.92-3.645l9.291-15.485A71.361,71.361,0,0,0,84.084,464H32Z"/><path d="M208,440a24,24,0,1,0,24-24A24.027,24.027,0,0,0,208,440Zm32,0a8,8,0,1,1-8-8A8.009,8.009,0,0,1,240,440Z"/><path d="M403.562,139.343a8,8,0,0,0,0,13.314l2.213,1.475a47.519,47.519,0,0,1,18.635,24.4,8,8,0,0,0,15.18,0,47.519,47.519,0,0,1,18.635-24.4l2.213-1.475a8,8,0,0,0,0-13.314l-2.213-1.475a47.519,47.519,0,0,1-18.635-24.4,8,8,0,0,0-15.18,0,47.519,47.519,0,0,1-18.635,24.4ZM432,133.9A63.763,63.763,0,0,0,442.618,146,63.763,63.763,0,0,0,432,158.1,63.763,63.763,0,0,0,421.382,146,63.763,63.763,0,0,0,432,133.9Z"/><path d="M331.562,196.657l2.213,1.475a47.519,47.519,0,0,1,18.635,24.4,8,8,0,0,0,15.18,0,47.519,47.519,0,0,1,18.635-24.4l2.213-1.475a8,8,0,0,0,0-13.314l-2.213-1.475a47.519,47.519,0,0,1-18.635-24.4,8,8,0,0,0-15.18,0,47.519,47.519,0,0,1-18.635,24.4l-2.213,1.475a8,8,0,0,0,0,13.314ZM360,177.9A63.763,63.763,0,0,0,370.618,190,63.763,63.763,0,0,0,360,202.1,63.763,63.763,0,0,0,349.382,190,63.763,63.763,0,0,0,360,177.9Z"/><path d="M404.438,81.344l-2.951-1.968a66.04,66.04,0,0,1-25.9-33.906,8,8,0,0,0-15.18,0,66.043,66.043,0,0,1-25.9,33.907l-2.95,1.967a8,8,0,0,0,0,13.312l2.951,1.968a66.04,66.04,0,0,1,25.9,33.906,8,8,0,0,0,15.18,0,66.043,66.043,0,0,1,25.9-33.907l2.95-1.967a8,8,0,0,0,0-13.312ZM368,109.073A82.324,82.324,0,0,0,349.727,88,82.324,82.324,0,0,0,368,66.927,82.324,82.324,0,0,0,386.273,88,82.324,82.324,0,0,0,368,109.073Z"/></g></svg>
