<svg height="512" width="512" xmlns="http://www.w3.org/2000/svg"><path d="M284.096 341.875c-4.738-2.498-10.479-2.937-15.748-1.204a20.067 20.067 0 00-6.025 3.175c-.641-1.155-1.366-2.681-2.17-4.698-2.911-7.31-5.193-14.758-7.61-22.644-1.594-5.202-3.243-10.581-5.077-15.869-5.057-14.58-11.25-29.582-22.237-40.541a40.034 40.034 0 00-17.283-10.139 7.472 7.472 0 00-1.494-.267 21.957 21.957 0 004.226-12.968c0-5.584-2.088-10.687-5.519-14.58a21.981 21.981 0 005.519-14.58c0-10.065-6.772-18.572-15.997-21.221a131.02 131.02 0 011.864-7.1l20.361-69.344c7.829-26.662 2.206-55.588-15.043-77.375C185.501 11.853 160.999 0 134.639 0c-26.358 0-50.86 11.853-67.224 32.521-17.247 21.787-22.87 50.712-15.042 77.374l20.362 69.344c.687 2.34 1.304 4.716 1.863 7.101-9.224 2.649-15.995 11.156-15.995 21.221 0 5.584 2.088 10.687 5.519 14.58-3.431 3.892-5.519 8.996-5.519 14.58s2.088 10.687 5.519 14.58c-3.431 3.892-5.519 8.995-5.519 14.58s2.088 10.687 5.519 14.58a21.983 21.983 0 00-5.519 14.58c0 10.697 7.647 19.638 17.76 21.652a132.052 132.052 0 01-3.627 16.069l-4.805 16.365a7.5 7.5 0 0014.392 4.226l4.805-16.364a147.079 147.079 0 004.361-19.868h15.376c-1.965 7.559-16.855 58.952-26.812 93.115-5.194 17.69-1.463 36.883 9.98 51.339 10.856 13.713 27.114 21.578 44.604 21.578s33.748-7.865 44.605-21.578c11.444-14.457 15.175-33.65 9.983-51.325-9.96-34.177-24.85-85.572-26.814-93.129h15.376a146.964 146.964 0 004.361 19.867l20.361 69.345c6.46 21.997 1.82 45.862-12.41 63.838-13.5 17.051-33.715 26.83-55.463 26.83-21.747 0-41.963-9.779-55.462-26.831-14.23-17.976-18.87-41.84-12.411-63.837l7.096-24.162a7.5 7.5 0 00-14.393-4.227l-7.096 24.163c-7.828 26.662-2.205 55.587 15.044 77.375C83.779 500.147 108.281 512 134.639 512c26.359 0 50.861-11.853 67.223-32.52 17.249-21.788 22.872-50.713 15.043-77.375l-20.361-69.346a131.765 131.765 0 01-3.627-16.068c6.002-1.195 11.131-4.833 14.312-9.828 2.709 6.858 4.882 14.003 7.147 21.471 1.176 3.875 2.391 7.882 3.683 11.82 4.392 13.388 10.407 31.723 26.245 41.303 5.43 3.285 11.864 4.986 18.341 4.986 3.461 0 6.934-.486 10.271-1.476 8.86-2.627 15.838-8.416 19.648-16.298 4.825-9.977 1.105-21.747-8.468-26.794zM73.603 265.88a7.088 7.088 0 017.08-7.08h107.913c3.904 0 7.08 3.176 7.08 7.08s-3.176 7.08-7.08 7.08H80.683c-3.904-.001-7.08-3.177-7.08-7.08zm0-29.16a7.088 7.088 0 017.08-7.08h107.913c3.904 0 7.08 3.176 7.08 7.08s-3.176 7.08-7.08 7.08H80.683a7.088 7.088 0 01-7.08-7.08zm-6.837-131.051c-6.459-21.998-1.819-45.863 12.411-63.838C92.677 24.78 112.892 15 134.639 15c21.748 0 41.963 9.78 55.462 26.831 14.231 17.976 18.871 41.841 12.411 63.839l-20.361 69.345a146.913 146.913 0 00-2.65 10.467H165.03c6.962-24.57 24.013-83.09 24.195-83.713 5.195-17.691 1.465-36.883-9.98-51.34-10.855-13.713-27.113-21.578-44.604-21.578-17.49 0-33.748 7.865-44.604 21.578C78.59 64.884 74.86 84.076 80.05 101.752c.18.621 17.242 59.172 24.2 83.729H89.781a147.347 147.347 0 00-2.653-10.468zm53.053 79.812c-.025-.104-.042-.208-.071-.313-6.1-21.733-25.105-86.957-25.301-87.628a41.948 41.948 0 017.349-37.803c7.994-10.098 19.965-15.889 32.844-15.889s24.851 5.791 32.844 15.888a41.951 41.951 0 017.345 37.818c-.197.676-19.368 66.469-25.384 87.925h-29.626zm-39.136 15h107.913c3.904 0 7.08 3.176 7.08 7.08s-3.176 7.08-7.08 7.08H80.683c-3.904 0-7.08-3.176-7.08-7.08s3.176-7.08 7.08-7.08zm94.149 213.978a41.945 41.945 0 01-7.348 37.803c-7.994 10.098-19.966 15.889-32.845 15.889s-24.85-5.791-32.843-15.889a41.953 41.953 0 01-7.346-37.817c27.464-94.237 27.464-95.263 27.464-96.683v-.643h25.45v.643c.001 1.42.001 2.446 27.468 96.697zm13.764-112.34H80.683c-3.904 0-7.08-3.176-7.08-7.08s3.176-7.08 7.08-7.08h107.913c3.904 0 7.08 3.176 7.08 7.08s-3.175 7.08-7.08 7.08zm90.464 60.022c-1.951 4.035-5.647 7.034-10.409 8.446-5.604 1.662-11.804.928-16.584-1.964-11.082-6.703-15.69-20.75-19.757-33.144-1.238-3.777-2.429-7.702-3.58-11.497-2.961-9.765-6.023-19.862-10.474-29.491-1.535-3.322-5.016-8.174-7.529-11.321-1.517-1.898-2.849-3.418-4.046-4.646a21.941 21.941 0 003.932-11.05 24.98 24.98 0 014.023 3.24c8.837 8.813 14.189 21.951 18.658 34.835 1.745 5.03 3.353 10.276 4.907 15.349 2.398 7.826 4.879 15.919 8.017 23.798 1.859 4.67 4.522 10.292 8.987 13.943a7.481 7.481 0 002.887 1.995c.237.092.471.175.699.248.202.147.384.265.532.354 2.884 1.744 7.236 1.579 10.017-2.084a7.473 7.473 0 002.201-3.464 5.182 5.182 0 011.493-.769c1.382-.454 2.942-.37 4.066.223 2.63 1.388 3.065 4.713 1.96 6.999zm134.093-183.032c.005-.116.017-.229.017-.346V22.604c0-12.175-9.905-22.08-22.08-22.08s-22.08 9.905-22.08 22.08v80.908c0 4.142 3.357 7.5 7.5 7.5s7.5-3.358 7.5-7.5V22.604c0-3.904 3.176-7.08 7.08-7.08s7.08 3.176 7.08 7.08v154.605c-.251-.003-.5-.019-.752-.019h-12.651c-.253 0-.504.018-.757.021v-43.699c0-4.142-3.357-7.5-7.5-7.5s-7.5 3.358-7.5 7.5v44.759c0 .285.019.565.05.842a65.546 65.546 0 00-34.302 21.183c-9.833 11.552-15.276 25.911-15.634 40.915a14.805 14.805 0 00-3.433 3.254 14.706 14.706 0 00-2.889 10.958l9.403 69.264a14.715 14.715 0 005.706 9.792 14.748 14.748 0 005.849 2.688c4.873 19.371 18.04 34.951 35.317 43.167-.04.314-.068.631-.068.956v108.327c0 12.175 9.905 22.08 22.08 22.08s22.08-9.905 22.08-22.08v-104.85c28.626-7.076 49.919-32.967 49.919-63.748v-78.156c.001-30.79-21.3-56.684-49.935-63.754zm-85.459 74.496a7.5 7.5 0 00.37-.059l28.16-3.823 9.352 68.881-28.531 3.873zm52.771 63.173l-9.403-69.264a14.715 14.715 0 00-5.706-9.792c-.166-.126-.342-.233-.511-.351a20.695 20.695 0 014.182-7.908 20.638 20.638 0 0115.74-7.273h12.651c11.398 0 20.671 9.273 20.671 20.671v78.156c0 11.398-9.272 20.671-20.671 20.671a20.566 20.566 0 01-19.637-14.25 14.693 14.693 0 002.684-10.66zm17.705 172.838c0 3.904-3.176 7.08-7.08 7.08s-7.08-3.176-7.08-7.08v-104.3a66.544 66.544 0 0013.408 1.373c.252 0 .5-.016.752-.019zm49.919-168.598c0 27.94-22.73 50.671-50.671 50.671-22.602 0-41.967-14.647-48.418-35.697l15.16-2.058c5.21 13.532 18.213 22.755 33.258 22.755 19.669 0 35.671-16.002 35.671-35.671v-78.156c0-19.669-16.002-35.671-35.671-35.671h-12.651a35.612 35.612 0 00-27.162 12.55 35.676 35.676 0 00-7.715 15.706l-15.515 2.106c1.049-10.099 5.104-19.661 11.805-27.533a50.594 50.594 0 0138.587-17.829h12.651c27.94 0 50.671 22.731 50.671 50.671z"/></svg>