<svg height="512" width="512" xmlns="http://www.w3.org/2000/svg"><path d="M494.656 259.563l-.012-.018-.02-.029-31.968-47.953A8 8 0 00456 208h-32a8 8 0 00-6.656 3.562L400 237.578V112a8 8 0 00-8-8h-32V88a8 8 0 005.268-14.021l-64-56a8 8 0 00-10.536 0l-64 56A8 8 0 00232 88v16h-32a8 8 0 00-8 8v108.37l-61.268 53.609v.006A7.977 7.977 0 00128 280v208a8 8 0 008 8h352a8 8 0 008-8V264a7.962 7.962 0 00-1.344-4.437zM192 432h-48V288h48zm78.1 0l25.9-21.586L321.9 432zm-30.1 8v8h-32v-40h65.9l-30.99 25.824-.007.006-.029.024A7.979 7.979 0 00240 440zm109.121-6.144l-.029-.024-.007-.006L318.1 408H384v40h-32v-8a7.979 7.979 0 00-2.879-6.144zM384 200H208v-48h176zm0 16v176H208V216zM208 464h32v16h-32zm48-16h32v32h-32zm48 0h32v32h-32zm48 16h32v16h-32zm48-192h80v176h-80zm28.281-48h23.438l21.333 32h-66.1zM296 34.63L338.708 72h-85.416zM248 88h96v16h-96zm136 32v16H208v-16zM192 272h-34.708L192 241.63zm-48 176h48v32h-48zm256 32v-16h80v16z"/><path d="M416 288h16v16h-16zm32 0h16v16h-16zm-32 32h16v16h-16zm32 0h16v16h-16zm-32 32h16v16h-16zm32 0h16v16h-16zm-32 32h16v16h-16zm32 0h16v16h-16zm-32 32h16v16h-16zm32 0h16v16h-16zM256 232h16v16h-16zm32 0h16v16h-16zm-32 32h16v16h-16zm32 0h16v16h-16zm-32 32h16v16h-16zm32 0h16v16h-16zm-32 32h16v16h-16zm32 0h16v16h-16zm-32 32h16v16h-16zm32 0h16v16h-16zm32-128h16v16h-16zm0 32h16v16h-16zm0 32h16v16h-16zm0 32h16v16h-16zm0 32h16v16h-16zm32-128h16v16h-16zm0 32h16v16h-16zm0 32h16v16h-16zm0 32h16v16h-16zm0 32h16v16h-16zM224 232h16v16h-16zm32-64h16v16h-16zm32 0h16v16h-16zm32 0h16v16h-16zm32 0h16v16h-16zm-128 0h16v16h-16zm0 96h16v16h-16zm0 32h16v16h-16zm0 32h16v16h-16zm-64-24h16v16h-16zm0 32h16v16h-16zm0 32h16v16h-16zm0 32h16v16h-16zm64-40h16v16h-16zM80 384c-.338 0-.672.012-1.007.022A32 32 0 0016 392v40a32.057 32.057 0 0024 30.987V496h16v-33.013a31.793 31.793 0 008.007-3.3A31.694 31.694 0 0072 462.975V496h16v-33.013A32.057 32.057 0 00112 432v-16a32.037 32.037 0 00-32-32zm-48 48v-40a16 16 0 0132 0v40a16 16 0 01-32 0zm64 0a15.953 15.953 0 01-20 15.477A31.793 31.793 0 0080 432v-32a16.035 16.035 0 0116 16z"/></svg>