<svg height="512" viewBox="0 0 512 512" width="512" xmlns="http://www.w3.org/2000/svg"><path d="m494.656 259.563-.012-.018-.02-.029-31.968-47.953a8 8 0 0 0 -6.656-3.563h-32a8 8 0 0 0 -6.656 3.562l-17.344 26.016v-125.578a8 8 0 0 0 -8-8h-32v-16a8 8 0 0 0 5.268-14.021l-64-56a8 8 0 0 0 -10.536 0l-64 56a8 8 0 0 0 5.268 14.021v16h-32a8 8 0 0 0 -8 8v108.37l-61.268 53.609v.006a7.977 7.977 0 0 0 -2.732 6.015v208a8 8 0 0 0 8 8h352a8 8 0 0 0 8-8v-224a7.962 7.962 0 0 0 -1.344-4.437zm-302.656 172.437h-48v-144h48zm78.1 0 25.9-21.586 25.9 21.586zm-30.1 8v8h-32v-40h65.9l-30.99 25.824-.007.006-.029.024a7.979 7.979 0 0 0 -2.874 6.146zm109.121-6.144-.029-.024-.007-.006-30.985-25.826h65.9v40h-32v-8a7.979 7.979 0 0 0 -2.879-6.144zm34.879-233.856h-176v-48h176zm0 16v176h-176v-176zm-176 248h32v16h-32zm48-16h32v32h-32zm48 0h32v32h-32zm48 16h32v16h-32zm48-192h80v176h-80zm28.281-48h23.438l21.333 32h-66.1zm-132.281-189.37 42.708 37.37h-85.416zm-48 53.37h96v16h-96zm136 32v16h-176v-16zm-192 152h-34.708l34.708-30.37zm-48 176h48v32h-48zm256 32v-16h80v16z"/><path d="m416 288h16v16h-16z"/><path d="m448 288h16v16h-16z"/><path d="m416 320h16v16h-16z"/><path d="m448 320h16v16h-16z"/><path d="m416 352h16v16h-16z"/><path d="m448 352h16v16h-16z"/><path d="m416 384h16v16h-16z"/><path d="m448 384h16v16h-16z"/><path d="m416 416h16v16h-16z"/><path d="m448 416h16v16h-16z"/><path d="m256 232h16v16h-16z"/><path d="m288 232h16v16h-16z"/><path d="m256 264h16v16h-16z"/><path d="m288 264h16v16h-16z"/><path d="m256 296h16v16h-16z"/><path d="m288 296h16v16h-16z"/><path d="m256 328h16v16h-16z"/><path d="m288 328h16v16h-16z"/><path d="m256 360h16v16h-16z"/><path d="m288 360h16v16h-16z"/><path d="m320 232h16v16h-16z"/><path d="m320 264h16v16h-16z"/><path d="m320 296h16v16h-16z"/><path d="m320 328h16v16h-16z"/><path d="m320 360h16v16h-16z"/><path d="m352 232h16v16h-16z"/><path d="m352 264h16v16h-16z"/><path d="m352 296h16v16h-16z"/><path d="m352 328h16v16h-16z"/><path d="m352 360h16v16h-16z"/><path d="m224 232h16v16h-16z"/><path d="m256 168h16v16h-16z"/><path d="m288 168h16v16h-16z"/><path d="m320 168h16v16h-16z"/><path d="m352 168h16v16h-16z"/><path d="m224 168h16v16h-16z"/><path d="m224 264h16v16h-16z"/><path d="m224 296h16v16h-16z"/><path d="m224 328h16v16h-16z"/><path d="m160 304h16v16h-16z"/><path d="m160 336h16v16h-16z"/><path d="m160 368h16v16h-16z"/><path d="m160 400h16v16h-16z"/><path d="m224 360h16v16h-16z"/><path d="m80 384c-.338 0-.672.012-1.007.022a32 32 0 0 0 -62.993 7.978v40a32.057 32.057 0 0 0 24 30.987v33.013h16v-33.013a31.793 31.793 0 0 0 8.007-3.3 31.694 31.694 0 0 0 7.993 3.288v33.025h16v-33.013a32.057 32.057 0 0 0 24-30.987v-16a32.037 32.037 0 0 0 -32-32zm-48 48v-40a16 16 0 0 1 32 0v40a16 16 0 0 1 -32 0zm64 0a15.953 15.953 0 0 1 -20 15.477 31.793 31.793 0 0 0 4-15.477v-32a16.035 16.035 0 0 1 16 16z"/></svg>