<svg xmlns="http://www.w3.org/2000/svg" width="512" height="512"><path d="M24 496h464a8 8 0 007.629-10.409l-22.607-71.586A538.457 538.457 0 01448 251.671V224a8 8 0 008-8v-32a8 8 0 00-8-8H336a8 8 0 00-8 8v32a8 8 0 008 8v27.671q0 14.457-.786 28.857L320 270.386V128a8 8 0 00-8-8h-32a8 8 0 00-8 8v110.386l-19.563-13.042A8 8 0 00240 232v49.052l-16-10.667V128a8 8 0 00-8-8h-32a8 8 0 00-8 8v110.385l-19.562-13.041A8 8 0 00144 232v49.052l-16-10.667V128a8 8 0 00-8-8H88a8 8 0 00-8 8v110.385l-19.562-13.041A8 8 0 0048 232v152H24a8 8 0 00-8 8v96a8 8 0 008 8zm72-16H64v-32h32zm80 0h-32v-32h32zm80 0h-32v-32h32zm201.765-61.177L477.084 480H306.916l19.319-61.177c.3-.939.57-1.883.862-2.823H456.9c.3.94.569 1.884.865 2.823zM344 192h96v16h-96zm92.24 128h-88.48a555.161 555.161 0 004.24-68.329V224h80v27.671A555.161 555.161 0 00436.24 320zm-90.678 16h92.876a554.213 554.213 0 0013.76 64H331.8a554.213 554.213 0 0013.762-64zM288 136h16v16h-16zm0 32h16v16h-16zm0 32h16v59.719l-16-10.667zm-32 46.947L317.574 288H256zM192 136h16v16h-16zm0 32h16v16h-16zm0 32h16v59.719l-16-10.667zm-32 46.948L221.578 288H160zM96 136h16v16H96zm0 32h16v16H96zm0 32h16v59.719l-16-10.667zm-32 46.948L125.578 288H64zM64 304h269.453a538.55 538.55 0 01-22.475 110.005L304 436.1V392a8 8 0 00-8-8H64zm-32 96h256v80h-16v-40a8 8 0 00-8-8h-48a8 8 0 00-8 8v40h-16v-40a8 8 0 00-8-8h-48a8 8 0 00-8 8v40h-16v-40a8 8 0 00-8-8H56a8 8 0 00-8 8v40H32z"/><path d="M120 320a24.027 24.027 0 00-24 24v16a8 8 0 008 8h32a8 8 0 008-8v-16a24.027 24.027 0 00-24-24zm8 32h-16v-8a8 8 0 0116 0zm72-32a24.027 24.027 0 00-24 24v16a8 8 0 008 8h32a8 8 0 008-8v-16a24.027 24.027 0 00-24-24zm8 32h-16v-8a8 8 0 0116 0zm96 8v-16a24 24 0 00-48 0v16a8 8 0 008 8h32a8 8 0 008-8zm-16-8h-16v-8a8 8 0 0116 0zM80 88a16.019 16.019 0 0116 16h16a32.036 32.036 0 00-32-32 16.019 16.019 0 01-16-16H48a32.036 32.036 0 0032 32zm96 0a16.019 16.019 0 0116 16h16a32.036 32.036 0 00-32-32 16.019 16.019 0 01-16-16h-16a32.036 32.036 0 0032 32zm96 0a16.019 16.019 0 0116 16h16a32.036 32.036 0 00-32-32 16.019 16.019 0 01-16-16h-16a32.036 32.036 0 0032 32zM72 408h16v16H72zm80 0h16v16h-16zm80 0h16v16h-16z"/></svg>