<?xml version="1.0"?>
<svg xmlns="http://www.w3.org/2000/svg" viewBox="0 0 512 512" width="512" height="512"><g id="outline"><path d="M24,496H488a8,8,0,0,0,7.629-10.409l-22.607-71.586A538.457,538.457,0,0,1,448,251.671V224a8,8,0,0,0,8-8V184a8,8,0,0,0-8-8H336a8,8,0,0,0-8,8v32a8,8,0,0,0,8,8v27.671q0,14.457-.786,28.857L320,270.386V128a8,8,0,0,0-8-8H280a8,8,0,0,0-8,8V238.386l-19.563-13.042A8,8,0,0,0,240,232v49.052l-16-10.667V128a8,8,0,0,0-8-8H184a8,8,0,0,0-8,8V238.385l-19.562-13.041A8,8,0,0,0,144,232v49.052l-16-10.667V128a8,8,0,0,0-8-8H88a8,8,0,0,0-8,8V238.385L60.438,225.344A8,8,0,0,0,48,232V384H24a8,8,0,0,0-8,8v96A8,8,0,0,0,24,496Zm72-16H64V448H96Zm80,0H144V448h32Zm80,0H224V448h32Zm201.765-61.177L477.084,480H306.916l19.319-61.177c.3-.939.57-1.883.862-2.823H456.9C457.2,416.94,457.469,417.884,457.765,418.823ZM344,192h96v16H344Zm92.24,128H347.76A555.161,555.161,0,0,0,352,251.671V224h80v27.671A555.161,555.161,0,0,0,436.24,320Zm-90.678,16h92.876a554.213,554.213,0,0,0,13.76,64H331.8A554.213,554.213,0,0,0,345.562,336ZM288,136h16v16H288Zm0,32h16v16H288Zm0,32h16v59.719l-16-10.667Zm-32,46.947L317.574,288H256ZM192,136h16v16H192Zm0,32h16v16H192Zm0,32h16v59.719l-16-10.667Zm-32,46.948L221.578,288H160ZM96,136h16v16H96Zm0,32h16v16H96Zm0,32h16v59.719L96,249.052ZM64,246.948,125.578,288H64ZM64,304H333.453a538.55,538.55,0,0,1-22.475,110.005L304,436.1V392a8,8,0,0,0-8-8H64ZM32,400H288v80H272V440a8,8,0,0,0-8-8H216a8,8,0,0,0-8,8v40H192V440a8,8,0,0,0-8-8H136a8,8,0,0,0-8,8v40H112V440a8,8,0,0,0-8-8H56a8,8,0,0,0-8,8v40H32Z"/><path d="M120,320a24.027,24.027,0,0,0-24,24v16a8,8,0,0,0,8,8h32a8,8,0,0,0,8-8V344A24.027,24.027,0,0,0,120,320Zm8,32H112v-8a8,8,0,0,1,16,0Z"/><path d="M200,320a24.027,24.027,0,0,0-24,24v16a8,8,0,0,0,8,8h32a8,8,0,0,0,8-8V344A24.027,24.027,0,0,0,200,320Zm8,32H192v-8a8,8,0,0,1,16,0Z"/><path d="M304,360V344a24,24,0,0,0-48,0v16a8,8,0,0,0,8,8h32A8,8,0,0,0,304,360Zm-16-8H272v-8a8,8,0,0,1,16,0Z"/><path d="M80,88a16.019,16.019,0,0,1,16,16h16A32.036,32.036,0,0,0,80,72,16.019,16.019,0,0,1,64,56H48A32.036,32.036,0,0,0,80,88Z"/><path d="M176,88a16.019,16.019,0,0,1,16,16h16a32.036,32.036,0,0,0-32-32,16.019,16.019,0,0,1-16-16H144A32.036,32.036,0,0,0,176,88Z"/><path d="M272,88a16.019,16.019,0,0,1,16,16h16a32.036,32.036,0,0,0-32-32,16.019,16.019,0,0,1-16-16H240A32.036,32.036,0,0,0,272,88Z"/><rect x="72" y="408" width="16" height="16"/><rect x="152" y="408" width="16" height="16"/><rect x="232" y="408" width="16" height="16"/></g></svg>
