<svg xmlns="http://www.w3.org/2000/svg" width="512" height="512"><path d="M352 392h64a8 8 0 008-8v-48a40 40 0 00-80 0v48a8 8 0 008 8zm40-78.624A24.039 24.039 0 01408 336v8h-16zM392 360h16v16h-16zm-32-24a24.039 24.039 0 0116-22.624V344h-16zm0 24h16v16h-16zM96 392h64a8 8 0 008-8v-48a40 40 0 00-80 0v48a8 8 0 008 8zm40-78.624A24.039 24.039 0 01152 336v8h-16zM136 360h16v16h-16zm-32-24a24.039 24.039 0 0116-22.624V344h-16zm0 24h16v16h-16z"/><path d="M456 408.806V280h8a8 8 0 007.761-6.06l6.485-25.94H488a8 8 0 007.761-9.94l-32-128A8 8 0 00456 104h-48V88a8 8 0 008-8V32a8 8 0 00-8-8h-96a8 8 0 00-8 8v48a8 8 0 008 8v16H56a8 8 0 00-7.761 6.06l-32 128A8 8 0 0024 248h9.754l6.485 25.94A8 8 0 0048 280h8v104.19A44.054 44.054 0 0016 428a43.561 43.561 0 003.006 16A43.561 43.561 0 0016 460v20a8 8 0 008 8h464a8 8 0 008-8v-18.624a29.169 29.169 0 00-8.7-20.847 39.878 39.878 0 00-31.3-31.723zM465.754 184l4 16H432v-16zm-8-32l4 16H432a39.759 39.759 0 00-3.35-16zM320 40h80v32h-80zm72 48v16h-64V88zM62.246 120h387.508l4 16H416v.022A39.788 39.788 0 00392 128h-32a39.788 39.788 0 00-24 8.022V136H184v.022A39.788 39.788 0 00160 128h-32a39.788 39.788 0 00-24 8.022V136H58.246zm329.732 24H392a24.027 24.027 0 0124 24v32h-16v-32a39.788 39.788 0 00-8.022-24zM368 168v-22.624A24.039 24.039 0 01384 168zm16 16v16h-16v-16zm-48-16a24.039 24.039 0 0116-22.624V168zm16 16v16h-16v-16zm-152-16a39.759 39.759 0 00-3.35-16h126.7a39.759 39.759 0 00-3.35 16zm120 16v16H200v-16zm-160.022-40H160a24.027 24.027 0 0124 24v32h-16v-32a39.788 39.788 0 00-8.022-24zM136 168v-22.624A24.039 24.039 0 01152 168zm16 16v16h-16v-16zm-48-16a24.039 24.039 0 0116-22.624V168zm16 16v16h-16v-16zm-65.754-32h37.1A39.759 39.759 0 0088 168H50.246zm-8 32H88v16H42.246zm-12 48l4-16h435.508l4 16zm50.839 215.561A27.692 27.692 0 0188 460v12H32v-12a27.692 27.692 0 012.915-12.439 8.006 8.006 0 000-7.122A27.692 27.692 0 0132 428a28 28 0 0156 0 27.692 27.692 0 01-2.915 12.439 8.006 8.006 0 000 7.122zM120 472h-16v-48h16zm32 0h-16v-48h16zm160 0H200v-16h112zm-96-32V312h80v128zm160 32h-16v-48h16zm32 0h-16v-48h16zm32 0h-16v-48h16zm0-64H328v16h16v48h-16v-20a12.013 12.013 0 00-12-12h-4V304a8 8 0 00-8-8h-96a8 8 0 00-8 8v136h-4a12.013 12.013 0 00-12 12v20h-16v-48h16v-16H99.172A44.188 44.188 0 0072 385.677V280h368zM54.246 264l-4-16h411.508l-4 16zM480 472h-24v-46.643a23.916 23.916 0 0115.861 20.067 8 8 0 003.01 5.442 13.305 13.305 0 015.129 10.51z"/><path d="M232 368v24h16v-16h8v-16h-16a8 8 0 00-8 8z"/></svg>