<svg height="512" width="512" xmlns="http://www.w3.org/2000/svg"><path d="M488 72h-24V40a8 8 0 00-8-8H56a8 8 0 00-8 8v80a8 8 0 008 8v48a39.98 39.98 0 0064 31.98V236a44 44 0 0088 0v-36h10.078A53.981 53.981 0 00272 146.078V128h184a8 8 0 008-8V88h16v58.477L253.164 232.52A8 8 0 00248 240v56h-40a8 8 0 00-8 8v24a8 8 0 004.422 7.156L216 340.945V456a40 40 0 0080 0V340.945l11.578-5.789A8 8 0 00312 328v-24a8 8 0 00-8-8h-40v-50.477l226.836-86.043A8 8 0 00496 152V80a8 8 0 00-8-8zM64 48h270.988A32.06 32.06 0 01304 72h-16a8 8 0 00-8 8 32.036 32.036 0 01-32 32H64zm192 98.078A37.965 37.965 0 01218.078 184H200a8 8 0 00-8 8v44a28 28 0 01-56 0v-60a8 8 0 00-16 0 24 24 0 01-48 0v-48h184zM448 112H283.576a47.736 47.736 0 0011.756-24H304a48.035 48.035 0 0047.277-40H448zM296 312v11.055l-11.578 5.789A8 8 0 00280 336v120a24 24 0 01-48 0V336a8 8 0 00-4.422-7.156L216 323.055V312z"/><path d="M384 64h16v16h-16zm-32 16h16v16h-16zm64 0h16v16h-16zM24 184h16v16H24zm0 32h16v16H24zm0-88h16v40H24z"/></svg>