<svg height="512" viewBox="0 0 512 512" width="512" xmlns="http://www.w3.org/2000/svg"><path d="m488 72h-24v-32a8 8 0 0 0 -8-8h-400a8 8 0 0 0 -8 8v80a8 8 0 0 0 8 8v48a39.98 39.98 0 0 0 64 31.98v28.02a44 44 0 0 0 88 0v-36h10.078a53.981 53.981 0 0 0 53.922-53.922v-18.078h184a8 8 0 0 0 8-8v-32h16v58.477l-226.836 86.043a8 8 0 0 0 -5.164 7.48v56h-40a8 8 0 0 0 -8 8v24a8 8 0 0 0 4.422 7.156l11.578 5.789v115.055a40 40 0 0 0 80 0v-115.055l11.578-5.789a8 8 0 0 0 4.422-7.156v-24a8 8 0 0 0 -8-8h-40v-50.477l226.836-86.043a8 8 0 0 0 5.164-7.48v-72a8 8 0 0 0 -8-8zm-424-24h270.988a32.06 32.06 0 0 1 -30.988 24h-16a8 8 0 0 0 -8 8 32.036 32.036 0 0 1 -32 32h-184zm192 98.078a37.965 37.965 0 0 1 -37.922 37.922h-18.078a8 8 0 0 0 -8 8v44a28 28 0 0 1 -56 0v-60a8 8 0 0 0 -16 0 24 24 0 0 1 -48 0v-48h184zm192-34.078h-164.424a47.736 47.736 0 0 0 11.756-24h8.668a48.035 48.035 0 0 0 47.277-40h96.723zm-152 200v11.055l-11.578 5.789a8 8 0 0 0 -4.422 7.156v120a24 24 0 0 1 -48 0v-120a8 8 0 0 0 -4.422-7.156l-11.578-5.789v-11.055z"/><path d="m384 64h16v16h-16z"/><path d="m352 80h16v16h-16z"/><path d="m416 80h16v16h-16z"/><path d="m24 184h16v16h-16z"/><path d="m24 216h16v16h-16z"/><path d="m24 128h16v40h-16z"/></svg>