<?xml version="1.0" encoding="iso-8859-1"?>
<svg version="1.1" id="Capa_1" xmlns="http://www.w3.org/2000/svg" xmlns:xlink="http://www.w3.org/1999/xlink" x="0px" y="0px"
	 viewBox="0 0 503.986 503.986" style="enable-background:new 0 0 503.986 503.986;" xml:space="preserve">
<path d="M471.977,243.993v-72h-416v72c0,13.255,10.745,24,24,24h152v224h64v-224h152
	C461.232,267.993,471.977,257.248,471.977,243.993z M71.977,187.993h384v16h-384V187.993z M279.977,475.993h-32v-160h32V475.993z
		M279.977,299.993h-32v-32h32V299.993z M79.977,251.993c-4.418,0-8-3.582-8-8v-24h384v24c0,4.418-3.582,8-8,8H79.977z"/>
<rect x="63.977" y="11.993" width="16" height="144"/>
<rect x="127.977" y="59.993" width="16" height="96"/>
<rect x="191.977" y="11.993" width="16" height="144"/>
<rect x="255.977" y="59.993" width="16" height="96"/>
<rect x="319.977" y="11.993" width="16" height="144"/>
<rect x="383.977" y="59.993" width="16" height="96"/>
<rect x="447.977" y="11.993" width="16" height="144"/>
<path d="M503.145,400.425c-0.775-1.555-2.036-2.816-3.591-3.591l-29.6-14.8l-14.8-29.6c-2.358-3.954-7.475-5.249-11.429-2.891
	c-1.189,0.709-2.182,1.702-2.891,2.891l-14.8,29.6l-29.6,14.8c-3.954,1.971-5.562,6.774-3.591,10.729
	c0.775,1.556,2.036,2.816,3.591,3.591l29.6,14.8l14.8,29.6c1.971,3.954,6.774,5.562,10.729,3.591
	c1.555-0.775,2.816-2.036,3.591-3.591l14.8-29.6l29.6-14.8C503.508,409.182,505.116,404.379,503.145,400.425z M460.401,412.833
	c-1.552,0.775-2.809,2.032-3.584,3.584l-8.84,17.688l-8.8-17.688c-0.775-1.552-2.032-2.809-3.584-3.584l-17.728-8.84l17.688-8.8
	c1.552-0.775,2.809-2.032,3.584-3.584l8.84-17.728l8.8,17.688c0.775,1.552,2.032,2.809,3.584,3.584l17.728,8.84L460.401,412.833z
	"/>
<path d="M107.553,344.873l-29.6-14.8l-14.8-29.6c-2.358-3.954-7.475-5.249-11.429-2.891c-1.189,0.709-2.182,1.702-2.891,2.891
	l-14.8,29.6l-29.6,14.8c-3.954,1.971-5.562,6.774-3.591,10.729c0.775,1.555,2.036,2.816,3.591,3.591l29.6,14.8l14.8,29.6
	c1.971,3.954,6.774,5.562,10.729,3.591c1.555-0.775,2.816-2.036,3.591-3.591l14.8-29.6l29.6-14.8
	c3.954-1.971,5.562-6.774,3.591-10.729C110.369,346.909,109.109,345.648,107.553,344.873z M68.401,360.753
	c-1.564,0.795-2.823,2.083-3.584,3.664v0.04l-8.84,17.648l-8.84-17.688c-0.775-1.552-2.032-2.809-3.584-3.584l-17.688-8.84
	l17.688-8.8c1.552-0.775,2.809-2.032,3.584-3.584l8.84-17.728l8.84,17.688c0.775,1.552,2.032,2.809,3.584,3.584l17.688,8.8
	L68.401,360.753z"/>
</svg>
