<svg xmlns="http://www.w3.org/2000/svg" viewBox="0 0 503.986 503.986"><path d="M471.977 243.993v-72h-416v72c0 13.255 10.745 24 24 24h152v224h64v-224h152c13.255 0 24-10.745 24-24zm-400-56h384v16h-384v-16zm208 288h-32v-160h32v160zm0-176h-32v-32h32v32zm-200-48a8 8 0 01-8-8v-24h384v24a8 8 0 01-8 8h-368zm-16-240h16v144h-16zm64 48h16v96h-16zm64-48h16v144h-16zm64 48h16v96h-16zm64-48h16v144h-16zm64 48h16v96h-16zm64-48h16v144h-16zm55.168 388.432a8 8 0 00-3.591-3.591l-29.6-14.8-14.8-29.6a8.336 8.336 0 00-14.32 0l-14.8 29.6-29.6 14.8a8 8 0 000 14.32l29.6 14.8 14.8 29.6a8 8 0 0014.32 0l14.8-29.6 29.6-14.8a8.001 8.001 0 003.591-10.729zm-42.744 12.408a8 8 0 00-3.584 3.584l-8.84 17.688-8.8-17.688a8 8 0 00-3.584-3.584l-17.728-8.84 17.688-8.8a8 8 0 003.584-3.584l8.84-17.728 8.8 17.688a8 8 0 003.584 3.584l17.728 8.84-17.688 8.84zm-352.848-67.96l-29.6-14.8-14.8-29.6a8.336 8.336 0 00-14.32 0l-14.8 29.6-29.6 14.8a8 8 0 000 14.32l29.6 14.8 14.8 29.6a8 8 0 0014.32 0l14.8-29.6 29.6-14.8a8 8 0 000-14.32zm-39.152 15.88a8.004 8.004 0 00-3.584 3.664v.04l-8.84 17.648-8.84-17.688a8 8 0 00-3.584-3.584l-17.688-8.84 17.688-8.8a8 8 0 003.584-3.584l8.84-17.728 8.84 17.688a8 8 0 003.584 3.584l17.688 8.8-17.688 8.8z"/></svg>