<svg version="1.0" xmlns="http://www.w3.org/2000/svg" width="586.667" height="586.667" viewBox="0 0 440 440"><path d="M156.9 21c-23.8 3.8-51 21.9-59.4 39.5-4.9 10.3-6 18.6-4 28.9l.8 3.8-4.4-.8c-6.3-1.1-14.7-.8-19.9.7-2.5.7-4.7 1.3-5 1.3-.3.1-3 1.5-6 3.3-8.5 4.9-18.3 15.2-24.7 26.2-4.1 7-9.6 19.1-8.6 19.1.3 0 .1.6-.4 1.2-3 3.7-4.8 23.6-3.1 33.3 2.3 13.7 9.7 27 20.6 37.2l4.5 4.3-5.3 5.2c-25.5 25.5-27.4 60-5.1 94.5 8.9 13.8 22.9 24.8 34.3 27.1 4.1.9 16.2.7 20.6-.2 3.1-.6 3.2-.5 2.2 1.4-1.3 2.4-1.7 13.8-.7 19.5 2.4 12.9 11.7 25.4 26.2 35 18.1 11.9 30.6 16.1 48.4 16.3 17.7.1 34.9-7.3 47.6-20.6l4.6-4.8 7.4 7c8.3 8 20.1 14.6 30.5 17 13 3.1 30.7 1.2 44.5-4.7 5.1-2.2 18.6-9.5 19.5-10.6.3-.3 2.2-1.9 4.4-3.5 8.4-6.3 17.4-18.5 19.8-27.1 1.3-4.6 1.5-17.5.4-22.4l-.8-3.3 3.3.8c3.8 1 16 1.1 20.1.2 7-1.6 17.7-7.8 23.9-14 8.7-8.7 17.6-23.9 22.5-38.5 2.2-6.5 2.7-10 2.9-20.3.2-6.8-.1-13.2-.5-14.1-.5-.9-1.1-2.7-1.4-4-1.6-8.9-9.5-22-18.2-30.5l-5.2-5.1 4.9-4.8c17.9-17.3 24.7-41.8 18.5-66-1.7-6.4-3.3-10.6-7.5-18.8-14.6-28.8-35.5-41.8-59.4-37.3l-3.9.7.8-3.3c1.4-6 1.1-16.2-.7-22-5.4-18-24.6-34.8-49.2-43.2-8-2.8-9.7-3.1-20.2-4.1-5.3-.6-12.7.1-20.6 1.9-8.8 2-21.8 9.8-30.3 18.2l-5.6 5.5-5.2-5.3c-8.5-8.7-18.9-15-29.9-18.2-7-2-20.6-2.8-28-1.6z"/></svg>