<?xml version="1.0" standalone="no"?>
<!DOCTYPE svg PUBLIC "-//W3C//DTD SVG 20010904//EN"
 "http://www.w3.org/TR/2001/REC-SVG-20010904/DTD/svg10.dtd">
<svg version="1.0" xmlns="http://www.w3.org/2000/svg"
 width="440.000000pt" height="440.000000pt" viewBox="0 0 440.000000 440.000000"
 preserveAspectRatio="xMidYMid meet">
<metadata>
Created by potrace 1.11, written by Peter Selinger 2001-2013
</metadata>
<g transform="translate(0.000000,440.000000) scale(0.100000,-0.100000)"
fill="#000000" stroke="none">
<path d="M1569 4190 c-238 -38 -510 -219 -594 -395 -49 -103 -60 -186 -40
-289 l8 -38 -44 8 c-63 11 -147 8 -199 -7 -25 -7 -47 -13 -50 -13 -3 -1 -30
-15 -60 -33 -85 -49 -183 -152 -247 -262 -41 -70 -96 -191 -86 -191 3 0 1 -6
-4 -12 -30 -37 -48 -236 -31 -333 23 -137 97 -270 206 -372 l45 -43 -53 -52
c-255 -255 -274 -600 -51 -945 89 -138 229 -248 343 -271 41 -9 162 -7 206 2
31 6 32 5 22 -14 -13 -24 -17 -138 -7 -195 24 -129 117 -254 262 -350 181
-119 306 -161 484 -163 177 -1 349 73 476 206 l46 48 74 -70 c83 -80 201 -146
305 -170 130 -31 307 -12 445 47 51 22 186 95 195 106 3 3 22 19 44 35 84 63
174 185 198 271 13 46 15 175 4 224 l-8 33 33 -8 c38 -10 160 -11 201 -2 70
16 177 78 239 140 87 87 176 239 225 385 22 65 27 100 29 203 2 68 -1 132 -5
141 -5 9 -11 27 -14 40 -16 89 -95 220 -182 305 l-52 51 49 48 c179 173 247
418 185 660 -17 64 -33 106 -75 188 -146 288 -355 418 -594 373 l-39 -7 8 33
c14 60 11 162 -7 220 -54 180 -246 348 -492 432 -80 28 -97 31 -202 41 -53 6
-127 -1 -206 -19 -88 -20 -218 -98 -303 -182 l-56 -55 -52 53 c-85 87 -189
150 -299 182 -70 20 -206 28 -280 16z"/>
</g>
</svg>
